<svg width="522" height="498" viewBox="0 0 522 498" fill="none" xmlns="http://www.w3.org/2000/svg">
<path d="M264.856 487.688C277.609 487.465 290.407 487.288 303.115 486.088C309.469 485.51 315.866 484.665 321.955 482.846C326.753 481.423 331.775 479.026 333.995 474.538C334.305 473.916 334.573 473.206 334.44 472.496C334.35 471.784 333.908 471.206 333.372 470.719C330.797 468.186 326.798 468.096 323.197 468.141C287.961 468.631 252.726 469.296 217.578 472.138C211.268 472.674 204.114 473.693 200.471 478.891C192.517 490.22 219.888 487.73 224.821 487.865C238.195 488.13 251.526 487.91 264.856 487.688Z" fill="url(#paint0_linear_10:1033)"/>
<path d="M264.846 487.688C277.598 487.465 290.396 487.288 303.104 486.088C309.458 485.51 315.855 484.665 321.944 482.846C326.743 481.423 331.764 479.026 333.985 474.538C334.297 473.916 334.562 473.206 334.43 472.496C334.34 471.784 333.897 471.206 333.365 470.719C330.786 468.186 326.788 468.096 323.187 468.141C287.951 468.631 252.715 469.296 217.568 472.138C211.258 472.674 204.104 473.693 200.46 478.891C192.507 490.22 219.878 487.73 224.81 487.865C238.185 488.13 251.515 487.91 264.846 487.688Z" fill="url(#paint1_linear_10:1033)"/>
<path d="M175.107 320.577C184.615 367.307 211.676 409.062 221.14 455.837C221.763 458.904 222.34 462.056 224.028 464.634C225.761 467.209 228.961 469.119 231.938 468.321C237.359 466.854 237.314 459.302 236.559 453.749C234.337 437.18 236.248 420.346 238.203 403.732C241.224 377.836 244.246 351.938 247.268 325.997C249.534 323.642 253.622 324.174 256.11 326.306C258.598 328.396 259.798 331.594 260.776 334.704C265.173 348.518 266.996 362.954 268.862 377.301C272.55 406.042 276.194 434.828 276.639 463.789C279.259 463.966 281.883 464.144 284.503 464.279C295.256 435.583 303.343 405.997 310.942 376.369C314.808 361.354 318.539 346.298 320.985 330.971C324.183 310.85 325.028 290.416 325.693 270.072C325.826 265.94 325.871 261.542 323.515 258.122C321.427 255.101 317.829 253.547 314.363 252.214C284.636 240.798 252.688 236.578 220.962 234.09C212.031 233.38 203.011 232.847 194.213 234.446C187.281 235.69 179.728 238.443 174.529 243.419C168.663 249.06 170.574 257.989 170.53 265.762C170.441 284.109 171.418 302.543 175.107 320.577Z" fill="#666666"/>
<path d="M156.302 216.855C153.369 225.739 151.059 236.267 156.48 243.907C159.057 247.505 162.967 249.859 166.922 251.858C189.139 263.052 214.555 265.672 239.305 268.072C261.611 270.247 284.005 272.425 306.401 271.225C317.066 270.647 328.306 269.095 336.616 262.386C344.525 256.034 348.659 245.862 349.769 235.778C350.879 225.695 349.369 215.522 347.814 205.483C346.126 194.467 344.438 183.45 341.55 172.701C336.528 154 327.774 136.32 316.043 120.951C307.156 109.357 296.358 98.8736 283.117 92.6547C270.587 86.7468 251.569 84.0372 238.55 90.3894C225.531 96.697 213.578 114.865 204.869 126.059C183.673 153.289 167.1 184.117 156.302 216.855Z" fill="#FCEE9F"/>
<path d="M280.417 60.316C280.285 62.6704 280.152 65.069 279.485 67.3789C277.842 72.8426 272.863 77.7733 266.111 80.3941C259.356 83.0147 250.958 83.3257 244.026 81.0159C237.139 78.7505 232.074 74.3085 228.03 69.6442C219.587 59.8718 214.655 48.2334 215.811 36.6841C215.988 34.9517 216.344 33.175 217.81 31.7978C219.899 29.8434 223.586 29.3992 226.919 29.1327C237.894 28.1553 268.332 21.2258 277.352 26.5119C286.284 31.7533 280.863 52.9867 280.417 60.316Z" fill="#F2D6C9"/>
<path d="M191.718 27.1341C193.318 33.9305 201.982 39.0832 211.269 40.2826C220.556 41.4376 230.109 39.2164 238.196 35.6629C246.817 31.8426 254.904 26.2901 264.946 25.9791C266.811 25.9347 268.724 26.068 270.322 26.6899C272.1 27.4006 273.387 28.6888 274.41 29.9769C280.142 37.0843 280.987 45.7018 281.697 53.9196C284.763 46.768 287.209 39.4829 288.941 32.0648C290.852 23.9802 291.385 14.5186 283.385 8.87716C277.299 4.56835 267.924 3.81319 259.481 4.56835C247.617 5.63444 236.197 9.27697 226.999 14.874C223.356 17.095 220.023 19.627 216.024 21.5815C212.069 23.4916 207.27 24.8242 202.56 24.2023C197.406 23.4916 196.384 20.3377 192.785 18.5608C191.319 21.0484 191.096 24.38 191.718 27.1341Z" fill="#D1B380"/>
<path d="M298.762 142.939C295.473 136.898 290.63 131.967 286.541 126.459C282.452 120.95 279.032 114.465 279.387 107.624C279.742 100.784 285.121 93.8539 291.962 93.8984C294.806 93.8984 297.471 95.0533 300.004 96.3415C308.227 100.473 315.736 106.114 321.91 112.955C324.31 115.62 326.531 118.463 328.086 121.706C330.355 126.459 330.975 131.834 331.552 137.075C332.53 146.315 333.33 155.687 331.332 164.749C328.444 177.676 319.202 189.225 306.981 194.422C304.361 195.533 300.359 197.443 297.871 196.021C295.206 194.511 294.718 191.046 295.296 188.425C296.806 181.229 301.737 175.277 302.848 167.637C303.96 159.241 302.848 150.446 298.762 142.939Z" fill="#F2D6C9"/>
<path d="M284.511 193.489C283.976 193.845 283.443 194.245 283.043 194.733C282.065 195.977 282.023 197.665 282.023 199.264C282.023 201.796 282.288 204.772 284.466 206.061C285.444 206.638 286.644 206.727 287.799 206.771C288.997 206.816 290.197 206.905 291.398 206.949C292.686 207.038 294.063 207.082 295.129 206.371C296.241 205.661 296.729 204.328 297.174 203.084C298.239 200.02 299.307 196.999 300.372 193.934C300.55 193.401 300.728 192.823 300.508 192.335C300.372 192.024 300.062 191.802 299.795 191.624C297.262 189.669 296.064 188.692 292.821 189.403C290.11 189.98 286.467 191.535 284.511 193.489Z" fill="#F2D6C9"/>
<path d="M308.457 466.366C306.859 464.899 304.504 464.676 302.37 464.544C299.172 464.321 295.971 464.057 292.773 463.834C291.395 463.744 289.93 463.611 288.817 462.812C288.375 462.502 288.019 462.057 287.707 461.612C286.687 461.612 285.709 461.569 284.686 461.569C280.998 461.479 277.309 462.857 273.711 463.966C274.466 467.121 275.176 470.231 275.931 473.383C276.066 474.006 276.244 474.673 276.732 475.071C277.222 475.471 277.932 475.516 278.6 475.516C289.262 475.783 299.972 475.383 310.59 474.361C310.68 471.474 310.59 468.231 308.457 466.366Z" fill="black"/>
<path d="M234.86 463.521C235.038 467.741 235.171 472.184 233.216 475.961C231.838 478.626 229.528 480.623 227.262 482.623C226.062 483.645 224.906 484.665 223.707 485.733C223.396 485.998 223.04 486.31 222.64 486.443C222.196 486.578 221.707 486.578 221.263 486.533C219.219 486.443 217.22 486.62 215.176 486.488C213.176 486.31 211.088 485.733 209.666 484.268C208.244 482.8 207.799 480.313 209.044 478.713C209.843 477.693 211.176 477.203 212.332 476.626C215.842 475.026 218.864 472.406 220.908 469.164C222.196 467.121 223.396 464.989 225.751 464.144C226.64 463.834 234.86 462.899 234.86 463.521Z" fill="black"/>
<path d="M306.634 184.65C306.146 183.628 305.611 182.606 304.769 181.896C303.658 181.007 302.145 180.963 300.767 180.918C276.019 180.119 251.225 179.275 226.475 178.475C224.475 178.386 222.653 179.674 221.809 181.629C217.81 191.046 213.056 198.953 210.034 208.77C209.634 210.103 210.567 211.435 211.9 211.48C245.315 211.924 280.462 215.522 313.833 212.724C316.099 212.546 317.477 209.97 316.499 207.793C313.166 200.241 309.922 191.402 306.634 184.65Z" fill="#7F7F7F"/>
<path d="M305.971 182.474C305.484 181.452 304.994 180.43 304.106 179.719C302.993 178.831 301.528 178.786 300.195 178.742C275.889 177.943 251.584 177.099 227.323 176.299C225.368 176.21 223.546 177.498 222.746 179.453C218.792 188.87 214.126 196.777 211.193 206.594C210.794 207.926 211.727 209.259 213.015 209.303C245.808 209.748 280.287 213.346 313.036 210.547C315.259 210.369 316.592 207.793 315.659 205.616C312.416 198.065 309.215 189.225 305.971 182.474Z" fill="#666666"/>
<path d="M302.108 184.473C301.663 183.762 301.218 183.007 300.418 182.518C299.442 181.896 298.11 181.851 296.864 181.807C274.959 181.23 253.052 180.608 231.146 180.03C229.369 179.986 227.769 180.874 227.014 182.296C223.459 189.047 219.238 194.733 216.616 201.796C216.261 202.729 217.105 203.706 218.26 203.751C247.853 204.062 278.957 206.683 308.462 204.639C310.46 204.506 311.705 202.641 310.818 201.086C307.93 195.666 305.041 189.314 302.108 184.473Z" fill="#F0F0F0"/>
<path d="M273.25 186.427C273.117 186.605 273.162 186.827 273.207 187.049C274.095 192.157 274.983 197.355 276.938 202.152C282.805 202.152 288.669 202.152 294.535 202.197C296.401 202.197 298.269 202.197 300.044 201.841C298.088 196.777 296.091 191.713 294.135 186.649C287.426 186.827 280.717 186.694 274.05 186.249C273.74 186.205 273.427 186.205 273.25 186.427Z" fill="#E0C74E"/>
<path d="M265.897 185.894C255.1 186.471 244.391 186.293 233.593 185.894C232.749 185.849 232.749 187.138 233.593 187.227C244.347 188.026 255.144 187.892 265.897 187.36C266.829 187.315 266.875 185.849 265.897 185.894Z" fill="#CACACA"/>
<path d="M266.98 190.025C256.405 189.981 245.83 190.292 235.299 190.869C234.499 190.914 234.499 192.157 235.299 192.113C245.874 191.624 256.405 191.491 266.98 191.535C267.958 191.535 267.958 190.025 266.98 190.025Z" fill="#CACACA"/>
<path d="M266.983 195.222C255.876 194.733 244.723 194.644 233.614 194.689C232.77 194.689 232.77 195.977 233.614 195.977C244.767 196.154 255.876 196.51 266.983 196.776C267.961 196.776 267.961 195.266 266.983 195.222Z" fill="#CACACA"/>
<path d="M264.021 199.176C254.156 199.087 244.247 199.264 234.339 199.353C233.495 199.353 233.495 200.641 234.339 200.641C244.203 200.73 254.112 200.908 264.021 200.819C265.086 200.819 265.086 199.22 264.021 199.176Z" fill="#CACACA"/>
<path d="M223.123 193.711C224.945 193.889 226.811 194.067 228.633 193.711C230.144 193.445 231.61 192.823 232.854 191.935C234.809 190.558 236.276 188.336 236.409 185.938C236.498 183.539 234.987 181.052 232.676 180.385C231.61 180.074 230.499 180.163 229.388 180.385C224.501 181.229 220.057 184.028 215.125 184.383C213.303 184.516 211.259 184.383 209.971 185.627C209.26 186.338 208.904 187.315 208.726 188.337C208.549 189.403 208.504 190.602 209.037 191.535C210.059 193.356 213.036 192.778 214.814 192.912C217.569 193.178 220.324 193.445 223.123 193.711Z" fill="#F2D6C9"/>
<path d="M190.699 108.424C182.523 114.554 175.858 122.506 169.504 130.501C163.639 137.92 157.818 145.693 154.929 154.711C152.041 163.728 152.53 174.344 158.395 181.763C164.349 189.27 174.302 192.024 183.723 193.845C187.455 194.556 191.277 195.222 195.098 194.956C199.319 194.689 206.117 195.489 210.161 194.156C212.338 193.445 212.338 191.358 213.982 189.758C215.627 188.159 215.982 184.694 214.827 182.74C207.984 182.296 201.141 181.585 194.342 180.608C188.699 179.808 182.568 178.52 178.924 174.167C174.969 169.458 175.236 162.218 178.168 156.798C181.101 151.379 186.211 147.514 191.498 144.36C196.786 141.207 202.429 138.586 207.317 134.854C215.671 128.458 250.863 103.049 240.865 92.2996C232.867 83.8595 197.586 103.227 190.699 108.424Z" fill="#F2D6C9"/>
<path d="M332.755 125.704C333.155 123.172 331.422 120.817 329.822 118.819C326.311 114.465 322.8 110.068 319.247 105.714C317.559 103.627 315.868 101.494 313.78 99.7621C309.649 96.2973 304.315 94.6536 299.162 93.1434C293.253 91.411 286.366 89.9451 281.39 93.5432C277.966 96.0308 276.411 100.428 276.411 104.648C276.411 108.868 277.789 112.911 279.299 116.864C281.522 122.728 283.92 128.813 287.076 134.232C289.697 138.808 292.63 138.452 297.074 136.454C308.672 131.256 320.134 127.214 332.755 125.704Z" fill="#FCEE9F"/>
<path d="M196.838 120.506C200.659 126.591 205.37 132.055 210.08 137.474C210.435 137.919 210.88 138.363 211.457 138.363C211.902 138.363 212.301 138.096 212.612 137.83C216.3 134.987 218.789 130.945 221.988 127.569C228.342 120.906 237.496 116.997 242.517 109.312C245.36 104.914 246.604 99.4948 245.982 94.2976C245.76 92.4765 245.271 90.6106 244.116 89.2337C242.472 87.2348 239.762 86.4351 237.184 86.4351C233.496 86.4351 229.942 87.7235 226.52 89.0562C216.789 92.8317 207.191 97.0072 197.771 101.538C195.461 102.649 193.106 103.804 190.795 104.959C187.774 106.513 187.018 106.469 188.974 109.134C191.773 112.821 194.35 116.508 196.838 120.506Z" fill="#FCEE9F"/>
<path d="M489.564 495.547C498.097 495.547 506.806 495.46 514.938 492.84C515.558 490.927 514.403 488.752 512.715 487.598C511.027 486.443 508.984 486.088 506.939 485.82C500.097 484.933 493.165 484.71 486.234 484.488C459.349 483.688 432.423 482.888 405.496 482.71C402.12 482.665 388.034 483.6 392.033 490.44C394.698 495.015 407.184 493.417 411.54 493.637C428.114 494.437 444.688 494.97 461.305 495.282C470.725 495.46 480.145 495.547 489.564 495.547Z" fill="url(#paint2_linear_10:1033)"/>
<path d="M489.564 495.55C498.097 495.55 506.806 495.46 514.938 492.84C515.558 490.93 514.403 488.752 512.715 487.598C511.027 486.443 508.984 486.088 506.939 485.82C500.097 484.933 493.165 484.71 486.234 484.488C459.349 483.69 432.423 482.89 405.496 482.713C402.12 482.668 388.034 483.6 392.033 490.443C394.698 495.017 407.184 493.417 411.54 493.64C428.114 494.44 444.688 494.972 461.305 495.282C470.725 495.46 480.145 495.55 489.564 495.55Z" fill="url(#paint3_linear_10:1033)"/>
<path d="M511.478 223.472C511.478 223.472 512.988 199.663 469.842 201.351C468.997 201.396 468.197 201.395 467.399 201.44C467.087 201.617 466.822 201.751 466.509 201.929C465.886 203.528 465.354 205.127 464.954 206.77C464.821 207.215 464.731 207.925 464.599 208.592C464.289 211.168 464.376 210.013 464.599 208.592C464.644 208.059 464.731 207.392 464.821 206.548C464.689 207.614 464.466 208.681 464.331 209.702C462.998 219.208 463.311 228.803 462.466 238.309C461.755 246.438 460.11 254.567 458.335 262.607C460.022 262.518 461.933 262.563 462.998 262.963C465.176 263.762 466.199 460.989 462.466 473.248L479.617 473.428C479.662 473.471 512.898 270.915 511.478 223.472Z" fill="#97A8B2"/>
<path d="M464.384 112.732C459.363 112.022 454.031 114.642 451.586 119.084C450.03 121.927 449.63 125.259 449.23 128.501C447.81 140.007 445.987 151.467 443.811 162.883C442.343 170.612 442.166 185.982 431.236 186.737C427.147 187.048 422.926 183.939 418.882 183.317C412.261 182.25 406.042 181.895 399.643 179.585C394.489 177.719 391.068 174.965 387.202 171.234C384.892 168.969 381.646 164.482 378.537 163.638C376.314 163.017 373.516 165.593 374.891 167.414C372.138 165.77 368.182 168.391 368.05 171.634C367.782 177.808 379.958 181.318 384.269 183.983C390.933 188.158 397.51 192.556 404.751 195.665C416.172 200.552 428.525 203.306 440.923 203.528C443.098 203.572 445.409 203.484 447.277 202.373C451.276 199.93 453.409 194.2 456.474 190.646C459.272 187.359 460.783 185.182 462.073 180.918C465.627 169.191 468.692 157.153 471.003 145.115C473.181 134.987 480.69 115.131 464.384 112.732Z" fill="#EADDD0"/>
<path d="M414.081 294.278C414.349 301.875 414.881 309.47 415.369 317.067C416.124 328.439 416.882 339.811 417.592 351.183C417.815 354.825 418.17 358.69 420.39 361.577C420.613 361.887 420.88 362.155 421.236 362.287C422.436 362.732 423.369 361.219 423.769 360.022C428.522 345.718 435.544 332.214 444.564 320.132C446.874 317.067 449.363 314.002 452.696 312.092C455.184 310.67 458.027 309.915 460.87 309.205C466.469 307.782 472.113 306.36 477.712 304.94C481.001 304.095 484.421 303.208 486.997 301.03C489.043 299.298 490.375 296.901 491.663 294.546C498.24 282.684 504.862 270.692 508.192 257.543C510.638 247.948 511.258 237.998 511.08 228.136C511.08 227.159 511.038 226.138 510.68 225.249C510.193 224.005 509.128 223.028 508.015 222.273C503.794 219.474 498.417 219.119 493.351 218.897C474.111 218.053 454.429 217.653 435.587 222.14C429.768 223.517 419.903 224.938 417.06 231.113C413.594 238.664 414.659 250.391 414.259 258.565C413.681 270.425 413.594 282.374 414.081 294.278Z" fill="#97A8B2"/>
<path d="M453.425 281.087C442.672 279.622 431.874 278.199 421.119 276.734C420.586 275.357 423.252 276.777 423.074 278.199C417.433 323.197 419.609 368.907 424.097 414.172C426.053 433.671 426.185 453.259 424.142 472.716C428.586 473.206 436.228 473.871 440.626 474.361C448.803 413.727 453.735 352.915 461.912 292.281C462.312 289.216 462.577 285.661 460.221 283.442C458.488 281.797 455.868 281.397 453.425 281.087Z" fill="#97A8B2"/>
<path d="M439.418 82.526C445.862 82.304 452.436 77.9508 459.368 76.5293C457.548 70.9321 459.726 64.891 460.303 59.0275C461.104 51.0762 458.881 43.1694 456.57 35.5733C454.704 29.4434 452.616 23.0912 448.215 18.3826C447.328 17.4498 446.305 16.5613 445.107 16.2504C444.039 15.9839 442.929 16.1616 441.861 16.2949C434.264 17.4498 413.159 18.3382 411.159 26.8671C408.403 38.5497 416.445 54.0523 420.979 64.4022C423.112 69.2885 425.287 74.2637 429.021 78.0395C432.399 81.5488 435.907 82.6592 439.418 82.526Z" fill="#EADDD0"/>
<path d="M513.089 249.725L513.221 249.592C513.311 249.503 513.356 249.414 513.444 249.37C513.621 249.103 513.799 248.881 513.977 248.614C516.245 245.15 518.198 241.507 520.198 237.909C523.932 195.887 519.175 153.465 505.98 112.154C501.846 99.1833 497.76 84.8799 482.251 75.9959C481.451 75.5516 480.608 75.1074 479.63 74.9297C478.34 74.7074 477.007 75.0629 475.764 75.3739C467.41 77.506 459.058 79.6384 450.658 81.8148C449.015 82.259 447.325 82.659 445.637 83.0587C443.859 83.4584 442.084 83.8137 440.261 84.0801C437.15 84.5244 424.932 87.4562 424.487 90.3881C423.421 97.8951 422.444 105.402 421.598 112.954C419.465 131.566 417.865 150.134 417.91 168.79C417.955 187.403 416.267 205.971 413.201 224.405C412.979 225.827 411.869 233.334 410.536 241.019C410.623 241.152 410.668 241.285 410.756 241.418C411.823 243.461 412.979 245.416 414.267 247.326C414.399 247.504 414.622 247.815 414.844 248.17C414.977 248.303 415.067 248.437 415.157 248.526C416.577 250.169 418.178 251.724 419.82 253.19C419.956 253.323 420.175 253.501 420.443 253.767C418.178 251.635 420.576 253.812 421.243 254.256C422.976 255.411 424.754 256.477 426.575 257.41C427.02 257.632 428.885 258.431 429.063 258.52C429.24 258.609 429.463 258.653 429.64 258.742C455.857 257.632 482.029 255.81 508.023 253.19C509.623 251.901 511.356 250.613 513.089 249.725Z" fill="#E8E8E8"/>
<path d="M425.282 471.029C425.014 471.029 424.749 471.029 424.481 471.074C424.126 471.161 423.904 471.384 423.681 471.561C422.748 472.493 422.038 473.516 421.638 474.626C421.283 475.648 421.193 476.758 420.438 477.648C419.595 478.668 418.04 479.291 416.484 479.778C412.528 481.068 408.262 481.955 403.954 482.355C402.976 482.445 401.998 482.533 401.111 482.8C398.62 483.643 398 485.82 397.687 487.73C397.6 488.263 397.555 488.93 398.222 489.24C398.577 489.417 399.02 489.417 399.465 489.417C411.906 489.375 417.195 489.375 429.593 489.375C432.613 489.375 435.767 489.285 438.7 488.753C439.1 488.663 439.5 488.62 439.81 488.398C440.123 488.175 440.255 487.863 440.388 487.553C442.033 483.288 442.211 478.623 441.856 474.226C441.723 472.848 441.501 471.738 439.323 471.429C436.212 470.984 439.633 471.338 436.479 471.251C432.791 471.206 429.015 471.116 425.282 471.029Z" fill="#97A8B2"/>
<path d="M478.995 38.6382C479.04 34.8182 476.819 31.3531 474.951 28.0215C471.84 22.4691 469.352 16.4723 465.531 11.3639C461.71 6.25553 456.066 1.99119 449.667 1.8135C447.002 1.72466 444.381 2.34659 441.803 2.96849C430.785 5.63372 419.675 8.34332 409.632 13.585C408.39 14.2512 407.102 14.9621 406.302 16.1614C405.589 17.1831 405.369 18.4712 405.146 19.715C404.834 21.4474 404.524 23.2242 404.214 24.9566C404.036 26.0671 403.813 27.1778 404.033 28.2438C404.701 31.5753 408.612 33.0413 412.033 33.2632C415.409 33.441 418.742 32.9968 422.075 32.5083C425.274 32.0641 432.828 29.3987 435.406 32.286C436.694 33.7075 436.294 36.1063 437.182 37.7942C438.25 39.8821 440.247 41.1258 441.58 42.9915C442.958 44.7239 443.936 47.1225 442.916 49.0771C444.781 47.9667 447.092 47.6112 449.225 48.1442C449.98 48.3219 450.735 48.6329 451.223 49.2104C452.158 50.3653 451.758 52.1422 450.735 53.2081C449.712 54.2743 448.247 54.7628 446.824 55.207C452.868 61.0262 455.089 70.4877 452.29 78.439C456.912 77.9505 460.778 74.7522 463.976 71.3761C466.864 68.3113 469.53 64.9795 471.353 61.2039C472.198 59.427 472.863 57.6059 473.531 55.7845C474.819 52.1419 476.151 48.4552 477.439 44.8126C478.239 42.7692 478.95 40.7261 478.995 38.6382Z" fill="#333333"/>
<path d="M463.878 471.428C463.613 471.428 463.345 471.428 463.08 471.473C462.723 471.561 462.5 471.783 462.28 471.961C461.345 472.893 460.635 473.916 460.234 475.026C459.879 476.048 459.792 477.158 459.037 478.046C458.192 479.068 456.636 479.691 455.081 480.178C451.127 481.468 446.861 482.355 442.55 482.755C441.572 482.843 440.595 482.933 439.707 483.2C437.219 484.043 436.596 486.22 436.286 488.13C436.196 488.662 436.151 489.33 436.819 489.64C437.174 489.817 437.619 489.817 438.061 489.817C450.505 489.772 455.791 489.772 468.189 489.772C471.21 489.772 474.366 489.685 477.299 489.153C477.699 489.062 478.096 489.017 478.409 488.795C478.719 488.575 478.854 488.263 478.987 487.953C480.63 483.688 480.807 479.023 480.452 474.626C480.32 473.248 480.097 472.138 477.919 471.828C474.811 471.383 478.232 471.738 475.076 471.651C471.345 471.606 467.611 471.516 463.878 471.428Z" fill="#97A8B2"/>
<path d="M377.385 175.232C376.097 177.809 374.632 180.341 373.031 182.739C372.809 183.095 372.544 183.45 372.144 183.539C371.744 183.672 371.298 183.45 370.943 183.272C366.632 181.14 362.369 179.008 358.058 176.92C359.08 166.793 358.503 154.532 361.433 144.893C361.834 143.516 382.984 147.203 384.407 151.067C385.785 154.888 381.874 164.083 380.586 167.77C379.698 170.302 378.63 172.789 377.385 175.232Z" fill="#C7B299"/>
<path d="M360.042 145.959C360.665 146.092 361.288 146.136 361.908 146.18C363.241 146.314 364.531 146.58 365.819 146.847C372.173 148.313 378.349 150.445 384.436 152.755C384.836 152.888 385.236 153.066 385.681 153.021C386.346 152.933 386.837 152.311 387.014 151.689C387.192 151.022 387.102 150.356 387.014 149.69C387.014 149.557 386.969 149.423 386.882 149.334C386.792 149.246 386.704 149.201 386.569 149.157C386.259 149.024 385.946 148.89 385.636 148.801C384.213 148.268 382.748 147.824 381.283 147.424C374.929 145.648 368.529 144.004 362.13 142.494C361.82 142.405 361.42 142.36 361.153 142.538C360.665 142.893 360.397 143.782 360.265 144.315C360.042 144.759 359.332 145.825 360.042 145.959Z" fill="#534741"/>
<path d="M359.724 164.082L378.742 172.344L382.563 162.305L359.724 153.021V164.082Z" fill="#5B8C87"/>
<path d="M431.087 50.2321C431 49.8324 430.509 49.4326 430.022 49.4769C425.266 49.9656 420.602 51.0315 416.023 52.1865C414.426 52.5865 415.136 54.9408 416.691 54.4966C420.822 53.4304 425.046 52.631 429.177 51.698C429.709 53.8301 430.154 56.0068 430.422 58.2279C430.554 59.2051 430.6 60.1823 430.6 61.1597C430.642 62.9364 427.976 63.0696 426.821 63.2916C425.401 63.5584 423.978 63.6471 422.555 63.6916C420.467 63.7803 420.334 62.8474 419.534 61.4705C418.334 59.3826 417.401 57.2062 416.559 54.9851C416.291 54.2744 415.181 54.5853 415.358 55.2961C416.291 58.4944 417.491 61.7372 419.267 64.6246C420.557 66.7122 425.356 65.424 427.311 65.1575C429.487 64.8465 432.287 64.3578 432.552 61.8702C433.043 58.0944 432.065 53.9189 431.087 50.2321Z" fill="#333333"/>
<path d="M442.452 46.0565C438.363 47.6112 434.455 49.9656 430.544 51.92C429.789 52.2755 430.321 53.5191 431.122 53.2526C435.253 51.8755 439.696 50.7208 443.652 48.8994C445.25 48.1887 444.097 45.4346 442.452 46.0565Z" fill="#333333"/>
<path d="M477.837 113.042C476.239 106.912 469.572 94.119 462.553 103.314C460.42 106.113 459.887 109.844 459.487 113.353C456.064 141.649 452.598 169.901 449.177 198.197C447.399 212.944 445.446 228.18 437.802 240.885C436.559 242.928 435.181 244.927 434.603 247.237C433.981 249.547 434.336 252.257 436.159 253.811C433.671 256.921 435.714 263.673 440.29 263.317C441.268 263.228 442.158 262.828 442.956 262.251C447.534 259.097 446.379 253.234 447.444 248.348C448.867 241.685 450.91 235.199 452.956 228.758C460.775 203.838 470.595 179.54 475.839 154.087C478.592 140.494 481.348 126.413 477.837 113.042Z" fill="#EADDD0"/>
<path d="M460.052 97.7619C458.274 98.1616 456.453 98.6058 455.118 99.8053C453.385 101.36 452.807 103.803 452.32 106.068C446.988 131.655 442.945 157.508 440.189 183.538C448.986 185.759 457.828 187.98 466.628 190.201C477.826 165.859 482.845 138.718 481.069 112.021C480.757 107.268 479.957 101.982 476.271 98.9611C471.827 95.452 465.515 96.5182 460.052 97.7619Z" fill="#6087A2"/>
<path d="M95.9675 491.772C104.899 491.505 113.83 491.195 122.717 490.53C127.027 490.217 131.471 489.772 135.381 487.908C137.514 486.885 139.691 484.62 138.713 482.488C137.914 480.713 135.514 480.446 133.514 480.446C101.3 480.401 69.0402 480.355 36.8699 482.488C31.0492 482.888 24.4285 483.778 21.0959 488.575C17.008 494.527 29.2275 492.84 31.7602 492.882C38.8252 492.972 45.8905 492.972 52.911 492.882C67.3076 492.705 81.6151 492.262 95.9675 491.772Z" fill="url(#paint4_linear_10:1033)"/>
<path d="M95.9778 491.775C104.909 491.508 113.84 491.198 122.727 490.53C127.037 490.22 131.481 489.775 135.391 487.91C137.524 486.888 139.701 484.623 138.724 482.491C137.924 480.713 135.524 480.446 133.525 480.446C101.31 480.403 69.0508 480.358 36.8802 482.491C31.0595 482.891 24.4387 483.778 21.1062 488.575C17.0182 494.527 29.2378 492.84 31.7704 492.885C38.8354 492.972 45.9007 492.972 52.9212 492.885C67.3178 492.708 81.6254 492.262 95.9778 491.775Z" fill="url(#paint5_linear_10:1033)"/>
<path d="M161.232 171.634C162.077 172.389 162.921 173.1 163.987 173.411C165.454 173.811 167.009 173.322 168.431 172.834C169.408 172.523 170.341 172.167 171.319 171.856C171.674 171.723 172.074 171.59 172.297 171.234C172.519 170.879 172.474 170.479 172.43 170.035C171.497 161.062 169.808 152.178 167.32 143.516C163.365 145.337 159.455 147.158 155.5 148.98C153.367 149.957 146.214 151.911 146.08 154.488C145.947 157.109 151.012 161.373 152.656 163.15C155.367 166.126 158.211 168.969 161.232 171.634Z" fill="white"/>
<path d="M163.036 141.873C164.191 141.384 165.435 140.895 166.724 141.073C167.968 141.251 169.212 142.361 169.035 143.605C168.901 144.494 164.191 146.626 163.347 147.114C161.303 148.314 159.215 149.424 157.082 150.49C154.949 151.556 152.772 152.534 150.594 153.466C149.395 154 146.773 155.643 145.351 155.154C140.152 153.333 149.217 148.358 150.772 147.47C154.727 145.338 158.859 143.605 163.036 141.873Z" fill="#333333"/>
<path d="M117.186 476.448C115.275 476.581 113.32 476.716 111.454 476.226C109.588 475.738 107.81 474.451 107.233 472.628C106.744 471.073 106.966 469.031 105.633 468.141C105.322 467.919 104.967 467.831 104.567 467.786C104.389 435.225 105.189 416.437 104.967 383.211C106.61 372.149 105.633 361.887 105.366 351.183C104.567 317.38 103.811 283.574 103.011 249.77C102.923 245.283 102.745 240.619 100.523 236.444C96.9238 229.692 88.9258 225.872 81.4164 222.94C59.1103 214.234 33.8717 201.796 27.7397 229.781C26.0957 237.199 24.7627 244.662 23.6519 252.213C22.8521 257.588 22.23 263.185 24.1851 268.515C27.5176 277.577 33.6942 299.833 41.5146 306.405C61.9097 323.552 70.7965 342.921 77.5062 365.664C75.4176 373.259 77.8615 384.008 78.7947 389.873C83.149 417.991 92.1251 444.155 96.5242 472.273C94.658 475.738 93.8577 479.781 94.3911 483.69C94.4799 484.488 94.6577 485.288 95.1908 485.865C95.9463 486.71 97.1903 486.888 98.3014 486.975C101.456 487.198 104.611 487.288 107.766 487.243C110.21 487.198 112.831 486.975 114.697 485.378C117.141 483.333 117.275 479.69 117.186 476.448Z" fill="#998675"/>
<path d="M90.607 284.151C84.342 270.337 61.4137 261.053 39.7743 276.822C26.8441 286.239 36.664 296.723 39.5077 306.05C42.9736 317.379 45.2842 329.061 46.3504 340.921C48.439 363.797 46.0841 387.518 39.2412 411.284C34.7088 427.098 34.62 444.42 31.4652 460.192C29.7323 469.031 24.2223 480.758 25.5109 489.552C30.3987 489.597 35.2867 489.642 40.1299 489.685C44.44 489.73 49.0166 489.685 52.616 487.333C56.2152 484.978 57.9924 479.38 54.9708 476.316C51.9936 477.293 48.8388 478.271 45.7728 477.558C32.3092 474.361 49.9053 443.932 52.4825 437.225C63.4577 408.619 74.433 380.011 82.3867 351.405C88.2519 330.481 99.2274 303.03 90.607 284.151Z" fill="#998675"/>
<path d="M94.7183 131.655C100.05 144.76 105.383 157.819 110.715 170.923C112.181 174.521 113.647 178.342 112.936 182.117C111.692 188.825 104.361 192.423 97.7399 193.933C84.6318 175.321 70.8129 157.197 56.3718 139.607C48.1514 129.612 35.3545 106.513 54.239 99.5395C75.6563 91.677 88.3643 116.02 94.7183 131.655Z" fill="#ACB18F"/>
<path d="M142.777 111.755C144.51 109.179 146.998 110.334 149.175 112.555C143.088 134.587 137.667 156.798 132.913 179.141C131.446 186.071 129.58 193.711 123.67 197.709C121.182 199.397 118.16 200.241 115.183 200.73C109.807 201.663 103.319 201.174 100.298 196.643C95.9876 190.158 101.32 183.85 105.586 179.319C110.607 174.033 112.739 170.612 115.85 163.416C123.004 146.803 132.69 126.858 142.777 111.755Z" fill="#ACB18F"/>
<path d="M152.947 110.734C153.436 110.112 153.703 109.357 154.014 108.602C154.769 106.691 155.524 104.737 156.28 102.827C156.635 101.939 156.991 101.05 157.035 100.117C157.08 99.1844 156.813 98.1627 156.102 97.5408C155.436 96.9633 154.502 96.83 153.614 97.0078C152.725 97.1855 152.014 97.6743 151.303 98.2072C149.748 99.4067 148.46 100.961 147.571 102.738C146.86 104.16 146.416 105.714 145.305 106.825C144.816 107.313 144.238 107.713 143.794 108.291C143.127 109.135 142.994 110.334 143.394 111.311C144.86 114.554 151.259 112.955 152.947 110.734Z" fill="#F2D6C9"/>
<path d="M118.241 288.771C116.019 241.241 111.087 193.844 104.644 146.625C102.289 129.301 99.445 108.69 81.3159 100.606C64.5197 93.0985 43.8135 91.1883 32.8828 108.068C26.7508 117.53 25.3732 128.99 24.0847 140.095C16.3531 208.015 8.62168 275.934 0.890137 343.853C9.37707 344.341 110.954 359.4 111.398 353.048C111.398 352.96 111.398 352.87 111.398 352.825C112.064 352.783 112.687 352.648 113.264 352.383C115.53 351.36 116.197 348.65 116.597 346.295C119.574 327.284 119.129 307.96 118.241 288.771Z" fill="#EBEFEB"/>
<path d="M149.539 164.216C149.761 163.728 149.938 163.194 150.249 162.75C150.916 161.817 152.071 161.462 153.226 161.329C154.337 161.195 155.493 161.284 156.603 161.107C160.069 160.485 162.913 157.064 166.379 157.597C167.445 157.775 168.423 158.308 169.312 158.93C170.467 159.774 171.533 160.884 171.844 162.262C172.289 164.438 170.733 166.526 169.312 168.214C168.512 169.147 167.668 170.124 166.601 170.701C165.712 171.19 164.691 171.368 163.669 171.59C161.225 172.167 158.781 173.056 156.825 174.744C155.226 176.121 153.893 178.031 151.893 178.519C148.25 179.408 144.828 175.41 144.429 172.123C143.94 168.747 148.294 167.015 149.539 164.216Z" fill="#F2D6C9"/>
<path d="M151.976 175.899C150.376 172.701 148.776 169.503 147.221 166.304C142.2 167.148 138.423 171.146 134.824 174.7C129.848 179.63 124.471 184.161 118.739 188.248C115.362 190.647 111.496 192.956 107.408 192.334C102.432 191.58 99.2322 186.738 96.6551 182.384C87.0575 165.993 77.4595 149.558 67.8619 133.167C60.2635 120.195 51.7766 124.948 46.311 136.587C41.379 147.203 47.7331 159.152 52.6208 168.747C58.9307 181.141 65.9066 193.179 73.5493 204.861C78.0372 211.702 83.4138 218.898 91.412 220.719C95.2332 221.608 99.3213 221.119 103.098 220.009C115.318 216.544 125.004 207.438 134.024 198.465C139.845 192.645 145.622 186.693 151.265 180.696C151.887 180.03 152.553 179.319 152.687 178.387C152.775 177.587 152.376 176.698 151.976 175.899Z" fill="#ACB18F"/>
<path d="M97.5229 35.2184C95.5231 29.266 92.3686 21.9366 85.9255 20.3818C78.9492 18.7383 69.085 23.3136 64.0195 27.7558C57.7542 33.2195 53.8439 40.9486 51.6666 48.9444C49.2673 57.6509 48.8672 67.3343 52.7774 75.5079C56.6877 83.6812 65.6191 89.8114 74.5504 88.4787C80.5489 87.5902 85.6589 83.637 89.5691 79.0172C99.6114 67.1569 102.455 49.8771 97.5229 35.2184Z" fill="#F2D6C9"/>
<path d="M67.537 57.5619C65.5372 54.0529 59.4942 54.2306 57.7167 57.8287C56.3837 60.4938 61.1826 71.3324 61.8935 74.664C63.7598 83.5038 54.2511 143.827 56.695 152.578C42.4314 152.889 28.0348 151.334 14.4379 146.981C13.0605 146.537 11.5942 146.004 10.6167 144.893C9.3725 143.427 9.32798 141.295 9.41683 139.385C10.4833 110.778 36.877 13.4079 72.3799 14.2519C76.7345 14.3408 81.0448 15.318 85.3104 16.3397C88.1099 17.006 90.9093 17.7612 93.4419 19.1827C98.5965 22.1589 101.796 27.8003 103.084 33.6193C104.417 39.4384 104.062 45.4796 103.751 51.3875C103.662 53.2089 82.3779 51.343 80.3339 51.0323C78.0233 50.6768 73.7133 48.8557 71.4027 49.8329C68.7365 50.9433 68.4254 55.1633 67.537 57.5619Z" fill="#534741"/>
<path opacity="0.19" d="M36.5104 244.75C30.3786 243.551 24.7796 240.575 19.3142 237.598C20.2029 234.933 21.0917 232.268 21.9359 229.603C46.9967 238.62 75.4791 237.821 100.007 227.426C100.407 231.646 100.762 235.866 101.162 240.086C94.4972 241.507 87.6987 242.041 80.9448 242.618C71.7024 243.373 62.5044 244.128 53.2621 244.928C47.7077 245.372 42.0203 245.816 36.5104 244.75Z" fill="white"/>
<defs>
<linearGradient id="paint0_linear_10:1033" x1="199.115" y1="478.083" x2="334.528" y2="478.083" gradientUnits="userSpaceOnUse">
<stop stop-color="#4D4D4D"/>
<stop offset="1"/>
</linearGradient>
<linearGradient id="paint1_linear_10:1033" x1="199.104" y1="478.083" x2="334.517" y2="478.083" gradientUnits="userSpaceOnUse">
<stop/>
<stop offset="1"/>
</linearGradient>
<linearGradient id="paint2_linear_10:1033" x1="391.397" y1="489.137" x2="515.129" y2="489.137" gradientUnits="userSpaceOnUse">
<stop stop-color="#4D4D4D"/>
<stop offset="1"/>
</linearGradient>
<linearGradient id="paint3_linear_10:1033" x1="391.397" y1="489.139" x2="515.129" y2="489.139" gradientUnits="userSpaceOnUse">
<stop/>
<stop offset="1"/>
</linearGradient>
<linearGradient id="paint4_linear_10:1033" x1="20.2956" y1="486.771" x2="138.937" y2="486.771" gradientUnits="userSpaceOnUse">
<stop stop-color="#4D4D4D"/>
<stop offset="1"/>
</linearGradient>
<linearGradient id="paint5_linear_10:1033" x1="20.3059" y1="486.771" x2="138.948" y2="486.771" gradientUnits="userSpaceOnUse">
<stop/>
<stop offset="1"/>
</linearGradient>
</defs>
</svg>
