<svg width="166" height="116" viewBox="0 0 166 116" fill="none" xmlns="http://www.w3.org/2000/svg">
<path fill-rule="evenodd" clip-rule="evenodd" d="M-1.52588e-05 52.1462C-1.52588e-05 66.2433 8.88426 79.0338 23.3198 88.4192C21.2806 98.7791 19.7335 110.558 22.7089 112.567C26.3684 115.037 41.5618 106.401 51.2738 100.376C60.997 102.9 71.6505 104.292 82.8205 104.292C93.6611 104.292 104.015 102.981 113.505 100.597C122.883 106.945 139.501 117.422 143.341 114.736C146.524 112.51 144.885 98.8737 142.986 87.9822C157.029 78.6386 165.641 66.0257 165.641 52.1462C165.641 23.3467 128.561 0 82.8205 0C37.08 0 -1.52588e-05 23.3467 -1.52588e-05 52.1462Z" fill="black"/>
<path d="M32.36 42.144C31.896 42.144 31.52 42 31.232 41.712C30.96 41.424 30.824 41.048 30.824 40.584V26.496C30.824 26.032 30.96 25.664 31.232 25.392C31.52 25.104 31.896 24.96 32.36 24.96C32.84 24.96 33.216 25.104 33.488 25.392C33.776 25.664 33.92 26.032 33.92 26.496V40.584C33.92 41.048 33.776 41.424 33.488 41.712C33.216 42 32.84 42.144 32.36 42.144ZM45.3136 42.144C44.8816 42.144 44.5216 42.024 44.2336 41.784C43.9616 41.528 43.8256 41.168 43.8256 40.704V26.376C43.8256 25.912 43.9616 25.56 44.2336 25.32C44.5216 25.08 44.8816 24.96 45.3136 24.96C45.7456 24.96 46.1056 25.08 46.3936 25.32C46.6816 25.56 46.8256 25.912 46.8256 26.376V40.704C46.8256 41.168 46.6816 41.528 46.3936 41.784C46.1056 42.024 45.7456 42.144 45.3136 42.144ZM55.2714 42.192C54.0714 42.192 53.0154 41.944 52.1034 41.448C51.2074 40.952 50.5114 40.24 50.0154 39.312C49.5194 38.384 49.2714 37.304 49.2714 36.072C49.2714 34.84 49.5194 33.768 50.0154 32.856C50.5114 31.928 51.2074 31.216 52.1034 30.72C53.0154 30.224 54.0714 29.976 55.2714 29.976C56.4714 29.976 57.5194 30.224 58.4154 30.72C59.3274 31.216 60.0234 31.928 60.5034 32.856C60.9994 33.768 61.2474 34.84 61.2474 36.072C61.2474 37.304 60.9994 38.384 60.5034 39.312C60.0234 40.24 59.3274 40.952 58.4154 41.448C57.5194 41.944 56.4714 42.192 55.2714 42.192ZM55.2474 39.864C56.2234 39.864 56.9674 39.544 57.4794 38.904C57.9914 38.264 58.2474 37.32 58.2474 36.072C58.2474 34.84 57.9914 33.904 57.4794 33.264C56.9674 32.608 56.2314 32.28 55.2714 32.28C54.3114 32.28 53.5674 32.608 53.0394 33.264C52.5274 33.904 52.2714 34.84 52.2714 36.072C52.2714 37.32 52.5274 38.264 53.0394 38.904C53.5514 39.544 54.2874 39.864 55.2474 39.864ZM71.7206 30.888C71.8486 30.6 72.0166 30.384 72.2246 30.24C72.4486 30.096 72.6886 30.024 72.9446 30.024C73.3126 30.024 73.6406 30.152 73.9286 30.408C74.2326 30.648 74.3846 30.952 74.3846 31.32C74.3846 31.512 74.3366 31.704 74.2406 31.896L69.8006 41.184C69.6566 41.488 69.4486 41.72 69.1766 41.88C68.9206 42.04 68.6326 42.12 68.3126 42.12C68.0086 42.12 67.7126 42.04 67.4246 41.88C67.1526 41.72 66.9446 41.488 66.8006 41.184L62.3366 31.896C62.2566 31.736 62.2166 31.552 62.2166 31.344C62.2166 30.976 62.3686 30.664 62.6726 30.408C62.9926 30.152 63.3526 30.024 63.7526 30.024C64.3286 30.024 64.7526 30.304 65.0246 30.864L68.3846 38.28L71.7206 30.888ZM85.2699 38.784C85.5419 38.784 85.7579 38.888 85.9179 39.096C86.0939 39.304 86.1819 39.584 86.1819 39.936C86.1819 40.432 85.8859 40.848 85.2939 41.184C84.7499 41.488 84.1339 41.736 83.4459 41.928C82.7579 42.104 82.1019 42.192 81.4779 42.192C79.5899 42.192 78.0939 41.648 76.9899 40.56C75.8859 39.472 75.3339 37.984 75.3339 36.096C75.3339 34.896 75.5739 33.832 76.0539 32.904C76.5339 31.976 77.2059 31.256 78.0699 30.744C78.9499 30.232 79.9419 29.976 81.0459 29.976C82.1019 29.976 83.0219 30.208 83.8059 30.672C84.5899 31.136 85.1979 31.792 85.6299 32.64C86.0619 33.488 86.2779 34.488 86.2779 35.64C86.2779 36.328 85.9739 36.672 85.3659 36.672H78.2859C78.3819 37.776 78.6939 38.592 79.2219 39.12C79.7499 39.632 80.5179 39.888 81.5259 39.888C82.0379 39.888 82.4859 39.824 82.8699 39.696C83.2699 39.568 83.7179 39.392 84.2139 39.168C84.6939 38.912 85.0459 38.784 85.2699 38.784ZM81.1179 32.088C80.3019 32.088 79.6459 32.344 79.1499 32.856C78.6699 33.368 78.3819 34.104 78.2859 35.064H83.7099C83.6779 34.088 83.4379 33.352 82.9899 32.856C82.5419 32.344 81.9179 32.088 81.1179 32.088ZM36.656 72.912C37.456 72.96 37.856 73.32 37.856 73.992C37.856 74.376 37.696 74.672 37.376 74.88C37.072 75.072 36.632 75.152 36.056 75.12L35.408 75.072C32.72 74.88 31.376 73.44 31.376 70.752V65.52H30.176C29.744 65.52 29.408 65.424 29.168 65.232C28.944 65.04 28.832 64.76 28.832 64.392C28.832 64.024 28.944 63.744 29.168 63.552C29.408 63.36 29.744 63.264 30.176 63.264H31.376V61.056C31.376 60.624 31.512 60.28 31.784 60.024C32.056 59.768 32.424 59.64 32.888 59.64C33.336 59.64 33.696 59.768 33.968 60.024C34.24 60.28 34.376 60.624 34.376 61.056V63.264H36.416C36.848 63.264 37.176 63.36 37.4 63.552C37.64 63.744 37.76 64.024 37.76 64.392C37.76 64.76 37.64 65.04 37.4 65.232C37.176 65.424 36.848 65.52 36.416 65.52H34.376V70.968C34.376 72.152 34.92 72.784 36.008 72.864L36.656 72.912ZM46.2834 62.976C49.0354 62.976 50.4114 64.584 50.4114 67.8V73.704C50.4114 74.152 50.2754 74.504 50.0034 74.76C49.7474 75.016 49.3874 75.144 48.9234 75.144C48.4594 75.144 48.0914 75.016 47.8194 74.76C47.5474 74.504 47.4114 74.152 47.4114 73.704V67.8C47.4114 66.952 47.2354 66.336 46.8834 65.952C46.5474 65.552 46.0114 65.352 45.2754 65.352C44.4114 65.352 43.7154 65.624 43.1874 66.168C42.6754 66.712 42.4194 67.44 42.4194 68.352V73.704C42.4194 74.152 42.2834 74.504 42.0114 74.76C41.7394 75.016 41.3714 75.144 40.9074 75.144C40.4434 75.144 40.0754 75.016 39.8034 74.76C39.5474 74.504 39.4194 74.152 39.4194 73.704V59.352C39.4194 58.936 39.5554 58.6 39.8274 58.344C40.1154 58.088 40.4834 57.96 40.9314 57.96C41.3794 57.96 41.7394 58.08 42.0114 58.32C42.2834 58.56 42.4194 58.888 42.4194 59.304V64.896C42.8194 64.272 43.3474 63.8 44.0034 63.48C44.6754 63.144 45.4354 62.976 46.2834 62.976ZM54.9464 75.144C54.5144 75.144 54.1544 75.024 53.8664 74.784C53.5944 74.528 53.4584 74.168 53.4584 73.704V64.44C53.4584 63.976 53.5944 63.624 53.8664 63.384C54.1544 63.144 54.5144 63.024 54.9464 63.024C55.3784 63.024 55.7384 63.144 56.0264 63.384C56.3144 63.624 56.4584 63.976 56.4584 64.44V73.704C56.4584 74.168 56.3144 74.528 56.0264 74.784C55.7384 75.024 55.3784 75.144 54.9464 75.144ZM54.9464 60.888C54.4024 60.888 53.9704 60.744 53.6504 60.456C53.3304 60.152 53.1704 59.76 53.1704 59.28C53.1704 58.8 53.3304 58.416 53.6504 58.128C53.9704 57.84 54.4024 57.696 54.9464 57.696C55.4744 57.696 55.8984 57.84 56.2184 58.128C56.5544 58.416 56.7224 58.8 56.7224 59.28C56.7224 59.76 56.5624 60.152 56.2424 60.456C55.9224 60.744 55.4904 60.888 54.9464 60.888ZM63.8002 75.192C62.0562 75.192 60.6482 74.848 59.5762 74.16C59.0642 73.856 58.8082 73.424 58.8082 72.864C58.8082 72.544 58.8962 72.288 59.0722 72.096C59.2482 71.888 59.4642 71.784 59.7202 71.784C59.9922 71.784 60.3682 71.912 60.8482 72.168C61.3602 72.408 61.8242 72.592 62.2402 72.72C62.6722 72.848 63.2162 72.912 63.8722 72.912C64.5442 72.912 65.0642 72.8 65.4322 72.576C65.8162 72.352 66.0082 72.04 66.0082 71.64C66.0082 71.368 65.9282 71.152 65.7682 70.992C65.6242 70.832 65.3522 70.688 64.9522 70.56C64.5682 70.416 63.9762 70.256 63.1762 70.08C61.7522 69.792 60.7282 69.384 60.1042 68.856C59.4962 68.328 59.1922 67.6 59.1922 66.672C59.1922 65.968 59.4002 65.336 59.8162 64.776C60.2322 64.2 60.8002 63.76 61.5202 63.456C62.2562 63.136 63.0882 62.976 64.0162 62.976C64.6882 62.976 65.3362 63.064 65.9602 63.24C66.5842 63.4 67.1442 63.64 67.6402 63.96C68.1522 64.28 68.4082 64.704 68.4082 65.232C68.4082 65.552 68.3202 65.824 68.1442 66.048C67.9682 66.256 67.7522 66.36 67.4962 66.36C67.3202 66.36 67.1442 66.328 66.9682 66.264C66.8082 66.184 66.6002 66.072 66.3442 65.928C65.8802 65.688 65.4802 65.512 65.1442 65.4C64.8082 65.272 64.3922 65.208 63.8962 65.208C63.3042 65.208 62.8322 65.328 62.4802 65.568C62.1442 65.808 61.9762 66.136 61.9762 66.552C61.9762 66.952 62.1522 67.256 62.5042 67.464C62.8562 67.672 63.5362 67.88 64.5442 68.088C65.6162 68.312 66.4562 68.568 67.0642 68.856C67.6722 69.144 68.1042 69.504 68.3602 69.936C68.6322 70.368 68.7682 70.92 68.7682 71.592C68.7682 72.68 68.3122 73.552 67.4002 74.208C66.5042 74.864 65.3042 75.192 63.8002 75.192ZM83.8123 72.912C84.6123 72.96 85.0123 73.32 85.0123 73.992C85.0123 74.376 84.8523 74.672 84.5323 74.88C84.2283 75.072 83.7883 75.152 83.2122 75.12L82.5643 75.072C79.8763 74.88 78.5323 73.44 78.5323 70.752V65.52H77.3323C76.9003 65.52 76.5643 65.424 76.3243 65.232C76.1002 65.04 75.9882 64.76 75.9882 64.392C75.9882 64.024 76.1002 63.744 76.3243 63.552C76.5643 63.36 76.9003 63.264 77.3323 63.264H78.5323V61.056C78.5323 60.624 78.6683 60.28 78.9403 60.024C79.2123 59.768 79.5803 59.64 80.0443 59.64C80.4923 59.64 80.8523 59.768 81.1243 60.024C81.3963 60.28 81.5323 60.624 81.5323 61.056V63.264H83.5723C84.0043 63.264 84.3323 63.36 84.5563 63.552C84.7963 63.744 84.9163 64.024 84.9163 64.392C84.9163 64.76 84.7963 65.04 84.5563 65.232C84.3323 65.424 84.0043 65.52 83.5723 65.52H81.5323V70.968C81.5323 72.152 82.0763 72.784 83.1643 72.864L83.8123 72.912ZM91.9276 75.192C90.7276 75.192 89.6716 74.944 88.7596 74.448C87.8636 73.952 87.1676 73.24 86.6716 72.312C86.1756 71.384 85.9276 70.304 85.9276 69.072C85.9276 67.84 86.1756 66.768 86.6716 65.856C87.1676 64.928 87.8636 64.216 88.7596 63.72C89.6716 63.224 90.7276 62.976 91.9276 62.976C93.1276 62.976 94.1756 63.224 95.0716 63.72C95.9836 64.216 96.6796 64.928 97.1596 65.856C97.6556 66.768 97.9036 67.84 97.9036 69.072C97.9036 70.304 97.6556 71.384 97.1596 72.312C96.6796 73.24 95.9836 73.952 95.0716 74.448C94.1756 74.944 93.1276 75.192 91.9276 75.192ZM91.9036 72.864C92.8796 72.864 93.6236 72.544 94.1356 71.904C94.6476 71.264 94.9036 70.32 94.9036 69.072C94.9036 67.84 94.6476 66.904 94.1356 66.264C93.6236 65.608 92.8876 65.28 91.9276 65.28C90.9676 65.28 90.2236 65.608 89.6956 66.264C89.1836 66.904 88.9276 67.84 88.9276 69.072C88.9276 70.32 89.1836 71.264 89.6956 71.904C90.2076 72.544 90.9436 72.864 91.9036 72.864ZM107.124 62.976C108.132 62.976 109.028 63.232 109.812 63.744C110.612 64.256 111.228 64.984 111.66 65.928C112.108 66.856 112.332 67.928 112.332 69.144C112.332 70.36 112.108 71.424 111.66 72.336C111.228 73.248 110.62 73.952 109.836 74.448C109.052 74.944 108.148 75.192 107.124 75.192C106.292 75.192 105.548 75.016 104.892 74.664C104.236 74.312 103.732 73.824 103.38 73.2V78.096C103.38 78.512 103.244 78.84 102.972 79.08C102.7 79.32 102.34 79.44 101.892 79.44C101.444 79.44 101.076 79.312 100.788 79.056C100.516 78.8 100.38 78.464 100.38 78.048V64.44C100.38 64.008 100.508 63.664 100.764 63.408C101.036 63.152 101.396 63.024 101.844 63.024C102.292 63.024 102.652 63.152 102.924 63.408C103.196 63.664 103.332 64.008 103.332 64.44V65.04C103.684 64.384 104.188 63.88 104.844 63.528C105.516 63.16 106.276 62.976 107.124 62.976ZM106.332 72.864C107.276 72.864 108.012 72.544 108.54 71.904C109.068 71.248 109.332 70.328 109.332 69.144C109.332 67.928 109.068 66.984 108.54 66.312C108.012 65.64 107.276 65.304 106.332 65.304C105.372 65.304 104.628 65.632 104.1 66.288C103.588 66.944 103.332 67.88 103.332 69.096C103.332 70.296 103.588 71.224 104.1 71.88C104.628 72.536 105.372 72.864 106.332 72.864ZM116.282 75.144C115.85 75.144 115.49 75.024 115.202 74.784C114.93 74.528 114.794 74.168 114.794 73.704V64.44C114.794 63.976 114.93 63.624 115.202 63.384C115.49 63.144 115.85 63.024 116.282 63.024C116.714 63.024 117.074 63.144 117.362 63.384C117.65 63.624 117.794 63.976 117.794 64.44V73.704C117.794 74.168 117.65 74.528 117.362 74.784C117.074 75.024 116.714 75.144 116.282 75.144ZM116.282 60.888C115.738 60.888 115.306 60.744 114.986 60.456C114.666 60.152 114.506 59.76 114.506 59.28C114.506 58.8 114.666 58.416 114.986 58.128C115.306 57.84 115.738 57.696 116.282 57.696C116.81 57.696 117.234 57.84 117.554 58.128C117.89 58.416 118.058 58.8 118.058 59.28C118.058 59.76 117.898 60.152 117.578 60.456C117.258 60.744 116.826 60.888 116.282 60.888ZM126.096 75.192C124.928 75.192 123.896 74.944 123 74.448C122.12 73.952 121.44 73.248 120.96 72.336C120.48 71.424 120.24 70.36 120.24 69.144C120.24 67.928 120.488 66.856 120.984 65.928C121.496 64.984 122.208 64.256 123.12 63.744C124.032 63.232 125.08 62.976 126.264 62.976C126.888 62.976 127.512 63.064 128.136 63.24C128.776 63.416 129.336 63.656 129.816 63.96C130.328 64.296 130.584 64.72 130.584 65.232C130.584 65.584 130.496 65.872 130.32 66.096C130.16 66.304 129.944 66.408 129.672 66.408C129.496 66.408 129.312 66.368 129.12 66.288C128.928 66.208 128.736 66.112 128.544 66C128.192 65.792 127.856 65.632 127.536 65.52C127.216 65.392 126.848 65.328 126.432 65.328C125.44 65.328 124.672 65.656 124.128 66.312C123.6 66.952 123.336 67.88 123.336 69.096C123.336 70.296 123.6 71.224 124.128 71.88C124.672 72.52 125.44 72.84 126.432 72.84C126.832 72.84 127.184 72.784 127.488 72.672C127.808 72.544 128.16 72.376 128.544 72.168C128.784 72.024 128.992 71.92 129.168 71.856C129.344 71.776 129.52 71.736 129.696 71.736C129.952 71.736 130.168 71.848 130.344 72.072C130.52 72.296 130.608 72.576 130.608 72.912C130.608 73.184 130.544 73.424 130.416 73.632C130.304 73.824 130.112 74 129.84 74.16C129.344 74.48 128.768 74.736 128.112 74.928C127.456 75.104 126.784 75.192 126.096 75.192ZM134.023 70.104C133.783 70.104 133.575 70.024 133.399 69.864C133.239 69.704 133.143 69.472 133.111 69.168L132.223 59.832L132.199 59.592C132.199 59.096 132.367 58.704 132.703 58.416C133.055 58.112 133.495 57.96 134.023 57.96C134.583 57.96 135.039 58.136 135.391 58.488C135.743 58.824 135.887 59.28 135.823 59.856L134.935 69.168C134.903 69.472 134.799 69.704 134.623 69.864C134.463 70.024 134.263 70.104 134.023 70.104ZM134.023 75.144C133.511 75.144 133.087 74.976 132.751 74.64C132.415 74.288 132.247 73.856 132.247 73.344C132.247 72.832 132.415 72.408 132.751 72.072C133.087 71.72 133.511 71.544 134.023 71.544C134.535 71.544 134.959 71.72 135.295 72.072C135.631 72.408 135.799 72.832 135.799 73.344C135.799 73.856 135.631 74.288 135.295 74.64C134.959 74.976 134.535 75.144 134.023 75.144Z" fill="white"/>
</svg>
