<svg width="145" height="66" viewBox="0 0 145 66" fill="none" xmlns="http://www.w3.org/2000/svg">
<path d="M14.736 49.24C13.776 49.24 13.008 48.968 12.432 48.424C11.888 47.848 11.616 47.096 11.616 46.168V20.248H2.88C0.96 20.248 0 19.4 0 17.704C0 16.008 0.96 15.16 2.88 15.16H26.544C28.464 15.16 29.424 16.008 29.424 17.704C29.424 19.4 28.464 20.248 26.544 20.248H17.808V46.168C17.808 47.096 17.52 47.848 16.944 48.424C16.4 48.968 15.664 49.24 14.736 49.24ZM39.5115 49.384C37.1115 49.384 34.9995 48.888 33.1755 47.896C31.3835 46.904 29.9915 45.48 28.9995 43.624C28.0075 41.768 27.5115 39.608 27.5115 37.144C27.5115 34.68 28.0075 32.536 28.9995 30.712C29.9915 28.856 31.3835 27.432 33.1755 26.44C34.9995 25.448 37.1115 24.952 39.5115 24.952C41.9115 24.952 44.0075 25.448 45.7995 26.44C47.6235 27.432 49.0155 28.856 49.9755 30.712C50.9675 32.536 51.4635 34.68 51.4635 37.144C51.4635 39.608 50.9675 41.768 49.9755 43.624C49.0155 45.48 47.6235 46.904 45.7995 47.896C44.0075 48.888 41.9115 49.384 39.5115 49.384ZM39.4635 44.728C41.4155 44.728 42.9035 44.088 43.9275 42.808C44.9515 41.528 45.4635 39.64 45.4635 37.144C45.4635 34.68 44.9515 32.808 43.9275 31.528C42.9035 30.216 41.4315 29.56 39.5115 29.56C37.5915 29.56 36.1035 30.216 35.0475 31.528C34.0235 32.808 33.5115 34.68 33.5115 37.144C33.5115 39.64 34.0235 41.528 35.0475 42.808C36.0715 44.088 37.5435 44.728 39.4635 44.728ZM69.9049 24.952C71.9209 24.952 73.7129 25.464 75.2809 26.488C76.8809 27.512 78.1129 28.968 78.9769 30.856C79.8729 32.712 80.3209 34.856 80.3209 37.288C80.3209 39.72 79.8729 41.848 78.9769 43.672C78.1129 45.496 76.8969 46.904 75.3289 47.896C73.7609 48.888 71.9529 49.384 69.9049 49.384C68.2409 49.384 66.7529 49.032 65.4409 48.328C64.1289 47.624 63.1209 46.648 62.4169 45.4V55.192C62.4169 56.024 62.1449 56.68 61.6009 57.16C61.0569 57.64 60.3369 57.88 59.4409 57.88C58.5449 57.88 57.8089 57.624 57.2329 57.112C56.6889 56.6 56.4169 55.928 56.4169 55.096V27.88C56.4169 27.016 56.6729 26.328 57.1849 25.816C57.7289 25.304 58.4489 25.048 59.3449 25.048C60.2409 25.048 60.9609 25.304 61.5049 25.816C62.0489 26.328 62.3209 27.016 62.3209 27.88V29.08C63.0249 27.768 64.0329 26.76 65.3449 26.056C66.6889 25.32 68.2089 24.952 69.9049 24.952ZM68.3209 44.728C70.2089 44.728 71.6809 44.088 72.7369 42.808C73.7929 41.496 74.3209 39.656 74.3209 37.288C74.3209 34.856 73.7929 32.968 72.7369 31.624C71.6809 30.28 70.2089 29.608 68.3209 29.608C66.4009 29.608 64.9129 30.264 63.8569 31.576C62.8329 32.888 62.3209 34.76 62.3209 37.192C62.3209 39.592 62.8329 41.448 63.8569 42.76C64.9129 44.072 66.4009 44.728 68.3209 44.728ZM108.692 49.384C106.356 49.384 104.292 48.888 102.5 47.896C100.74 46.904 99.3803 45.496 98.4203 43.672C97.4603 41.848 96.9803 39.72 96.9803 37.288C96.9803 34.856 97.4763 32.712 98.4683 30.856C99.4923 28.968 100.916 27.512 102.74 26.488C104.564 25.464 106.66 24.952 109.028 24.952C110.276 24.952 111.524 25.128 112.772 25.48C114.052 25.832 115.172 26.312 116.132 26.92C117.156 27.592 117.668 28.44 117.668 29.464C117.668 30.168 117.492 30.744 117.14 31.192C116.82 31.608 116.388 31.816 115.844 31.816C115.492 31.816 115.124 31.736 114.74 31.576C114.356 31.416 113.972 31.224 113.588 31C112.884 30.584 112.212 30.264 111.572 30.04C110.932 29.784 110.196 29.656 109.364 29.656C107.38 29.656 105.844 30.312 104.756 31.624C103.7 32.904 103.172 34.76 103.172 37.192C103.172 39.592 103.7 41.448 104.756 42.76C105.844 44.04 107.38 44.68 109.364 44.68C110.164 44.68 110.868 44.568 111.476 44.344C112.116 44.088 112.82 43.752 113.588 43.336C114.068 43.048 114.484 42.84 114.836 42.712C115.188 42.552 115.54 42.472 115.892 42.472C116.404 42.472 116.836 42.696 117.188 43.144C117.54 43.592 117.716 44.152 117.716 44.824C117.716 45.368 117.588 45.848 117.332 46.264C117.108 46.648 116.724 47 116.18 47.32C115.188 47.96 114.036 48.472 112.724 48.856C111.412 49.208 110.068 49.384 108.692 49.384ZM142.594 44.344C143.234 44.952 143.554 45.64 143.554 46.408C143.554 47.144 143.282 47.8 142.738 48.376C142.226 48.952 141.618 49.24 140.914 49.24C140.21 49.24 139.554 48.952 138.946 48.376L127.714 38.2V46.408C127.714 47.336 127.426 48.04 126.85 48.52C126.274 49 125.554 49.24 124.69 49.24C123.826 49.24 123.106 49 122.53 48.52C121.986 48.04 121.714 47.336 121.714 46.408V17.752C121.714 16.824 121.986 16.12 122.53 15.64C123.106 15.16 123.826 14.92 124.69 14.92C125.554 14.92 126.274 15.16 126.85 15.64C127.426 16.12 127.714 16.824 127.714 17.752V35.8L137.986 25.96C138.562 25.384 139.218 25.096 139.954 25.096C140.69 25.096 141.33 25.368 141.874 25.912C142.418 26.456 142.69 27.096 142.69 27.832C142.69 28.568 142.386 29.24 141.778 29.848L134.242 36.856L142.594 44.344Z" fill="black"/>
<path fill-rule="evenodd" clip-rule="evenodd" d="M88.6459 17.6154C85.77 15.7456 84 13.1974 84 10.3889C84 4.65126 91.3873 0 100.5 0C109.613 0 117 4.65126 117 10.3889C117 16.1265 109.613 20.7778 100.5 20.7778C98.2746 20.7778 96.1522 20.5004 94.2151 19.9975C92.2802 21.1979 89.2533 22.9184 88.5242 22.4262C87.9314 22.026 88.2396 19.6794 88.6459 17.6154Z" fill="black"/>
<path d="M100.524 6.48C100.756 6.48 100.94 6.552 101.076 6.696C101.212 6.832 101.28 7.016 101.28 7.248V14.292C101.28 14.524 101.208 14.712 101.064 14.856C100.928 15 100.748 15.072 100.524 15.072C100.292 15.072 100.108 15 99.9718 14.856C99.8358 14.712 99.7678 14.524 99.7678 14.292V11.328H95.4358V14.292C95.4358 14.524 95.3638 14.712 95.2198 14.856C95.0838 15 94.8998 15.072 94.6678 15.072C94.4438 15.072 94.2598 15 94.1158 14.856C93.9798 14.712 93.9118 14.524 93.9118 14.292V7.248C93.9118 7.016 93.9798 6.832 94.1158 6.696C94.2518 6.552 94.4358 6.48 94.6678 6.48C94.8998 6.48 95.0838 6.552 95.2198 6.696C95.3638 6.832 95.4358 7.016 95.4358 7.248V10.08H99.7678V7.248C99.7678 7.016 99.8358 6.832 99.9718 6.696C100.108 6.552 100.292 6.48 100.524 6.48ZM103.711 15.072C103.495 15.072 103.315 15.012 103.171 14.892C103.035 14.764 102.967 14.584 102.967 14.352V9.72C102.967 9.488 103.035 9.312 103.171 9.192C103.315 9.072 103.495 9.012 103.711 9.012C103.927 9.012 104.107 9.072 104.251 9.192C104.395 9.312 104.467 9.488 104.467 9.72V14.352C104.467 14.584 104.395 14.764 104.251 14.892C104.107 15.012 103.927 15.072 103.711 15.072ZM103.711 7.944C103.439 7.944 103.223 7.872 103.063 7.728C102.903 7.576 102.823 7.38 102.823 7.14C102.823 6.9 102.903 6.708 103.063 6.564C103.223 6.42 103.439 6.348 103.711 6.348C103.975 6.348 104.187 6.42 104.347 6.564C104.515 6.708 104.599 6.9 104.599 7.14C104.599 7.38 104.519 7.576 104.359 7.728C104.199 7.872 103.983 7.944 103.711 7.944ZM106.722 12.552C106.602 12.552 106.498 12.512 106.41 12.432C106.33 12.352 106.282 12.236 106.266 12.084L105.822 7.416L105.81 7.296C105.81 7.048 105.894 6.852 106.062 6.708C106.238 6.556 106.458 6.48 106.722 6.48C107.002 6.48 107.23 6.568 107.406 6.744C107.582 6.912 107.654 7.14 107.622 7.428L107.178 12.084C107.162 12.236 107.11 12.352 107.022 12.432C106.942 12.512 106.842 12.552 106.722 12.552ZM106.722 15.072C106.466 15.072 106.254 14.988 106.086 14.82C105.918 14.644 105.834 14.428 105.834 14.172C105.834 13.916 105.918 13.704 106.086 13.536C106.254 13.36 106.466 13.272 106.722 13.272C106.978 13.272 107.19 13.36 107.358 13.536C107.526 13.704 107.61 13.916 107.61 14.172C107.61 14.428 107.526 14.644 107.358 14.82C107.19 14.988 106.978 15.072 106.722 15.072Z" fill="white"/>
<path d="M89 27.5L89 46" stroke="black" stroke-width="6" stroke-linecap="round"/>
</svg>
